<svg data-v-423bf9ae="" xmlns="http://www.w3.org/2000/svg" viewBox="0 0 354.61407632882754 60" class="font"><!----><!----><!----><g data-v-423bf9ae="" id="e662d69f-e146-412e-b2da-333dfd038547" fill="black" transform="matrix(5.03355701476259,0,0,5.03355701476259,-1.1577222980564557,-11.577181132353836)"><path d="M5.15 9.28L5.15 12.06L5.13 12.54Q5.13 13.07 5.43 13.21L5.43 13.21Q5.55 13.27 5.70 13.27L5.70 13.27Q5.94 13.27 6.19 13.16L6.19 13.16Q5.93 13.27 5.74 13.45Q5.55 13.62 5.35 13.79L5.35 13.79Q4.86 14.21 4.36 14.21L4.36 14.21Q3.86 14.21 3.83 13.63L3.83 13.63Q3.81 13.48 3.81 13.33L3.81 13.33Q2.58 14.18 1.56 14.18L1.56 14.18Q0.69 14.18 0.36 13.66L0.36 13.66Q0.23 13.47 0.23 13.13Q0.23 12.80 0.44 12.46Q0.64 12.12 0.96 11.84L0.96 11.84Q1.52 11.32 2.31 10.99L2.31 10.99Q2.90 10.73 3.82 10.70L3.82 10.70L3.82 10.40Q3.82 9.31 3.62 8.93Q3.42 8.54 3.11 8.36Q2.80 8.18 2.37 8.18L2.37 8.18Q1.65 8.18 1.11 8.46L1.11 8.46Q1.86 7.84 2.21 7.64L2.21 7.64Q2.93 7.24 3.51 7.24Q4.09 7.24 4.39 7.41Q4.68 7.58 4.85 7.86L4.85 7.86Q5.15 8.35 5.15 9.28L5.15 9.28ZM1.93 13.04Q2.10 13.16 2.32 13.21Q2.54 13.27 2.97 13.27Q3.40 13.27 3.82 13.06L3.82 13.06L3.82 11.63L2.71 11.63Q2.12 11.63 1.67 11.71L1.67 11.71Q1.59 12.00 1.59 12.27Q1.59 12.54 1.68 12.73Q1.77 12.92 1.93 13.04ZM9.14 7.86Q9.62 7.59 10.14 7.45Q10.67 7.30 11.03 7.30Q11.40 7.30 11.67 7.35L11.67 7.35L11.67 5.11Q11.67 4.38 11.40 4.14L11.40 4.14Q11.28 4.03 11.10 4.03L11.10 4.03Q10.89 4.03 10.48 4.13L10.48 4.13Q12.20 2.82 13.00 2.41L13.00 2.41L13.00 12.19Q13.00 12.74 13.11 12.92L13.11 12.92Q13.32 13.26 13.82 13.26L13.82 13.26Q14.03 13.26 14.23 13.22L14.23 13.22Q14.03 13.38 13.83 13.55Q13.64 13.72 13.43 13.86L13.43 13.86Q12.94 14.19 12.57 14.19Q12.20 14.19 12.04 14.12Q11.88 14.05 11.79 13.92L11.79 13.92Q11.66 13.73 11.66 13.18L11.66 13.18Q10.25 14.22 9.41 14.22L9.41 14.22Q8.16 14.22 7.49 13.38L7.49 13.38Q6.88 12.62 6.88 11.33L6.88 11.33Q6.88 10.28 7.53 9.32L7.53 9.32Q8.14 8.42 9.14 7.86L9.14 7.86ZM11.67 12.60L11.67 9.21Q11.36 8.72 10.87 8.47Q10.38 8.22 9.84 8.22Q9.31 8.22 9.00 8.40Q8.68 8.58 8.50 8.88L8.50 8.88Q8.20 9.40 8.20 10.18Q8.20 10.96 8.33 11.49Q8.47 12.02 8.76 12.43L8.76 12.43Q9.41 13.30 10.64 13.30L10.64 13.30Q10.91 13.30 11.17 13.14L11.17 13.14Q11.67 12.85 11.67 12.60L11.67 12.60ZM16.76 10.53L16.76 12.59Q16.76 13.28 17.16 13.28L17.16 13.28Q17.29 13.28 17.58 13.16L17.58 13.16Q17.31 13.75 16.78 14.05L16.78 14.05Q16.50 14.21 16.19 14.19Q15.89 14.18 15.75 14.03Q15.62 13.88 15.54 13.67L15.54 13.67Q15.44 13.33 15.44 12.80L15.44 12.80L15.44 5.00Q15.44 4.27 15.18 4.03L15.18 4.03Q15.07 3.92 14.89 3.92L14.89 3.92Q14.59 3.92 14.25 4.02L14.25 4.02Q15.08 3.36 16.76 2.30L16.76 2.30L16.76 8.57Q17.62 7.82 18.51 7.55L18.51 7.55Q18.84 7.44 19.15 7.44Q19.46 7.44 19.73 7.54Q20.01 7.64 20.23 7.82L20.23 7.82Q20.71 8.22 20.71 8.83L20.71 8.83L20.71 12.30Q20.71 13.21 21.15 13.30L21.15 13.30Q21.27 13.33 21.41 13.33L21.41 13.33Q21.62 13.33 22.00 13.16L22.00 13.16Q21.44 13.88 20.69 14.11L20.69 14.11Q20.43 14.19 20.13 14.19Q19.83 14.19 19.67 14.05Q19.50 13.90 19.44 13.69Q19.38 13.47 19.38 13.21L19.38 13.21L19.38 10.14Q19.38 9.10 19.06 8.74L19.06 8.74Q18.76 8.39 17.97 8.39L17.97 8.39Q16.91 8.39 16.79 9.84L16.79 9.84Q16.76 10.21 16.76 10.53L16.76 10.53ZM23.20 3.41L24.53 2.48L24.57 3.26L24.57 3.62Q24.57 3.94 24.49 4.02Q24.40 4.09 24.31 4.16L24.31 4.16Q23.93 4.43 23.20 4.89L23.20 4.89Q23.24 4.21 23.24 4.19Q23.24 4.16 23.20 3.41L23.20 3.41ZM25.96 13.24L25.96 13.24Q25.75 13.41 25.56 13.58Q25.36 13.75 25.15 13.89L25.15 13.89Q24.66 14.21 24.21 14.21L24.21 14.21Q23.78 14.21 23.61 14.08L23.61 14.08Q23.26 13.82 23.26 13.13L23.26 13.13L23.26 9.88Q23.26 9.15 23.00 8.93L23.00 8.93Q22.87 8.83 22.73 8.83Q22.59 8.83 22.49 8.84Q22.39 8.86 22.29 8.88Q22.18 8.90 22.07 8.92L22.07 8.92Q22.42 8.65 22.71 8.44Q23.01 8.23 23.22 8.09Q23.43 7.94 23.81 7.68Q24.19 7.42 24.59 7.21L24.59 7.21L24.59 12.03Q24.59 12.73 24.68 12.91L24.68 12.91Q24.87 13.29 25.53 13.29L25.53 13.29Q25.70 13.29 25.96 13.24ZM29.74 13.23L29.74 13.23Q29.51 13.41 29.31 13.59Q29.10 13.77 28.88 13.90L28.88 13.90Q28.40 14.22 27.88 14.22L27.88 14.22Q27.13 14.22 27.06 13.18L27.06 13.18Q27.04 12.90 27.04 12.63L27.04 12.63L27.04 5.32Q27.04 4.38 26.62 4.10L26.62 4.10Q26.44 3.98 26.28 3.98L26.28 3.98Q26.06 3.98 25.98 3.99Q25.91 4.00 25.85 4.01L25.85 4.01Q26.84 3.32 27.10 3.19L27.10 3.19Q27.44 3.00 27.81 2.82Q28.17 2.64 28.37 2.54L28.37 2.54L28.37 11.97Q28.37 12.25 28.37 12.49Q28.38 12.73 28.45 12.91L28.45 12.91Q28.62 13.28 29.31 13.28L29.31 13.28Q29.53 13.28 29.74 13.23ZM33.12 4.25L33.12 4.25L34.47 4.24Q35.62 4.24 36.18 4.57L36.18 4.57Q36.90 5.00 36.90 6.06L36.90 6.06Q36.90 7.04 35.77 7.87L35.77 7.87Q35.45 8.09 35.16 8.30L35.16 8.30Q36.80 8.48 37.34 9.65L37.34 9.65Q37.53 10.06 37.53 10.53Q37.53 11.00 37.35 11.38Q37.18 11.75 36.89 12.10Q36.60 12.44 36.23 12.75Q35.85 13.06 35.46 13.30L35.46 13.30Q34.36 13.97 33.54 14.03L33.54 14.03Q32.95 14.08 32.50 14.08L32.50 14.08L30.96 14.08Q31.26 13.66 31.32 13.47L31.32 13.47Q31.42 13.18 31.42 12.67L31.42 12.67L31.42 5.17L29.91 5.17Q31.00 4.25 31.24 4.25L31.24 4.25Q32.18 4.25 33.12 4.25ZM32.74 5.14L32.74 8.31Q33.17 8.29 33.82 8.29Q34.46 8.29 34.75 8.31L34.75 8.31Q35.43 8.09 35.55 7.49L35.55 7.49Q35.58 7.28 35.58 7.01L35.58 7.01Q35.58 5.13 33.22 5.13L33.22 5.13Q32.98 5.13 32.74 5.14L32.74 5.14ZM32.74 9.21L32.74 11.71Q32.74 12.50 32.31 13.15L32.31 13.15L34.21 13.15Q35.01 13.15 35.40 12.93Q35.78 12.71 35.98 12.39Q36.18 12.07 36.18 11.55Q36.18 11.02 36.03 10.64Q35.89 10.27 35.64 10.01Q35.40 9.75 35.06 9.59Q34.73 9.43 34.34 9.35L34.34 9.35Q33.72 9.21 32.74 9.21L32.74 9.21ZM43.10 9.28L43.10 12.06L43.09 12.54Q43.09 13.07 43.39 13.21L43.39 13.21Q43.50 13.27 43.65 13.27L43.65 13.27Q43.89 13.27 44.15 13.16L44.15 13.16Q43.89 13.27 43.70 13.45Q43.50 13.62 43.31 13.79L43.31 13.79Q42.81 14.21 42.31 14.21L42.31 14.21Q41.82 14.21 41.78 13.63L41.78 13.63Q41.77 13.48 41.77 13.33L41.77 13.33Q40.54 14.18 39.51 14.18L39.51 14.18Q38.64 14.18 38.31 13.66L38.31 13.66Q38.19 13.47 38.19 13.13Q38.19 12.80 38.39 12.46Q38.60 12.12 38.91 11.84L38.91 11.84Q39.47 11.32 40.26 10.99L40.26 10.99Q40.85 10.73 41.77 10.70L41.77 10.70L41.77 10.40Q41.77 9.31 41.58 8.93Q41.38 8.54 41.06 8.36Q40.75 8.18 40.33 8.18L40.33 8.18Q39.61 8.18 39.06 8.46L39.06 8.46Q39.81 7.84 40.16 7.64L40.16 7.64Q40.88 7.24 41.46 7.24Q42.05 7.24 42.34 7.41Q42.64 7.58 42.81 7.86L42.81 7.86Q43.10 8.35 43.10 9.28L43.10 9.28ZM39.89 13.04Q40.05 13.16 40.27 13.21Q40.49 13.27 40.92 13.27Q41.35 13.27 41.77 13.06L41.77 13.06L41.77 11.63L40.67 11.63Q40.07 11.63 39.63 11.71L39.63 11.71Q39.54 12.00 39.54 12.27Q39.54 12.54 39.63 12.73Q39.72 12.92 39.89 13.04ZM45.52 8.16L44.63 8.16L45.52 7.46L45.52 6.49Q45.89 6.23 46.05 6.09Q46.20 5.95 46.31 5.89Q46.42 5.83 46.54 5.76L46.54 5.76Q46.83 5.59 46.85 5.56L46.85 5.56L46.85 7.23L49.04 7.23Q48.95 7.23 48.59 7.55L48.59 7.55Q47.90 8.16 47.71 8.16L47.71 8.16L46.85 8.16L46.85 11.82Q46.85 13.08 47.58 13.28L47.58 13.28Q47.80 13.33 47.99 13.33L47.99 13.33Q48.30 13.33 48.52 13.24Q48.74 13.15 48.88 13.07L48.88 13.07Q48.47 13.71 47.71 14.04L47.71 14.04Q47.33 14.21 46.88 14.21Q46.43 14.21 46.18 14.05Q45.94 13.90 45.79 13.64L45.79 13.64Q45.52 13.18 45.52 12.41L45.52 12.41L45.52 8.16ZM51.35 10.53L51.35 12.59Q51.35 13.28 51.75 13.28L51.75 13.28Q51.88 13.28 52.17 13.16L52.17 13.16Q51.90 13.75 51.37 14.05L51.37 14.05Q51.09 14.21 50.78 14.19Q50.48 14.18 50.34 14.03Q50.21 13.88 50.13 13.67L50.13 13.67Q50.03 13.33 50.03 12.80L50.03 12.80L50.03 5.00Q50.03 4.27 49.77 4.03L49.77 4.03Q49.66 3.92 49.48 3.92L49.48 3.92Q49.18 3.92 48.84 4.02L48.84 4.02Q49.67 3.36 51.35 2.30L51.35 2.30L51.35 8.57Q52.21 7.82 53.10 7.55L53.10 7.55Q53.43 7.44 53.74 7.44Q54.04 7.44 54.32 7.54Q54.60 7.64 54.82 7.82L54.82 7.82Q55.30 8.22 55.30 8.83L55.30 8.83L55.30 12.30Q55.30 13.21 55.74 13.30L55.74 13.30Q55.86 13.33 56 13.33L56 13.33Q56.21 13.33 56.59 13.16L56.59 13.16Q56.03 13.88 55.28 14.11L55.28 14.11Q55.02 14.19 54.72 14.19Q54.42 14.19 54.26 14.05Q54.09 13.90 54.03 13.69Q53.97 13.47 53.97 13.21L53.97 13.21L53.97 10.14Q53.97 9.10 53.65 8.74L53.65 8.74Q53.35 8.39 52.56 8.39L52.56 8.39Q51.50 8.39 51.38 9.84L51.38 9.84Q51.35 10.21 51.35 10.53L51.35 10.53ZM61.72 9.28L61.72 12.06L61.71 12.54Q61.71 13.07 62.01 13.21L62.01 13.21Q62.13 13.27 62.28 13.27L62.28 13.27Q62.51 13.27 62.77 13.16L62.77 13.16Q62.51 13.27 62.32 13.45Q62.13 13.62 61.93 13.79L61.93 13.79Q61.43 14.21 60.94 14.21L60.94 14.21Q60.44 14.21 60.40 13.63L60.40 13.63Q60.39 13.48 60.39 13.33L60.39 13.33Q59.16 14.18 58.13 14.18L58.13 14.18Q57.26 14.18 56.93 13.66L56.93 13.66Q56.81 13.47 56.81 13.13Q56.81 12.80 57.01 12.46Q57.22 12.12 57.53 11.84L57.53 11.84Q58.09 11.32 58.88 10.99L58.88 10.99Q59.47 10.73 60.40 10.70L60.40 10.70L60.40 10.40Q60.40 9.31 60.20 8.93Q60.00 8.54 59.68 8.36Q59.37 8.18 58.95 8.18L58.95 8.18Q58.23 8.18 57.68 8.46L57.68 8.46Q58.43 7.84 58.78 7.64L58.78 7.64Q59.50 7.24 60.08 7.24Q60.67 7.24 60.96 7.41Q61.26 7.58 61.43 7.86L61.43 7.86Q61.72 8.35 61.72 9.28L61.72 9.28ZM58.51 13.04Q58.67 13.16 58.89 13.21Q59.11 13.27 59.54 13.27Q59.97 13.27 60.40 13.06L60.40 13.06L60.40 11.63L59.29 11.63Q58.69 11.63 58.25 11.71L58.25 11.71Q58.16 12.00 58.16 12.27Q58.16 12.54 58.25 12.73Q58.34 12.92 58.51 13.04ZM66.73 13.23L66.73 13.23Q66.51 13.41 66.30 13.59Q66.10 13.77 65.88 13.90L65.88 13.90Q65.39 14.22 64.87 14.22L64.87 14.22Q64.12 14.22 64.05 13.18L64.05 13.18Q64.04 12.90 64.04 12.63L64.04 12.63L64.04 5.32Q64.04 4.38 63.62 4.10L63.62 4.10Q63.44 3.98 63.27 3.98L63.27 3.98Q63.05 3.98 62.98 3.99Q62.90 4.00 62.85 4.01L62.85 4.01Q63.83 3.32 64.09 3.19L64.09 3.19Q64.44 3.00 64.80 2.82Q65.17 2.64 65.37 2.54L65.37 2.54L65.37 11.97Q65.37 12.25 65.37 12.49Q65.37 12.73 65.45 12.91L65.45 12.91Q65.62 13.28 66.31 13.28L66.31 13.28Q66.53 13.28 66.73 13.23ZM67.92 3.41L69.25 2.48L69.29 3.26L69.29 3.62Q69.29 3.94 69.21 4.02Q69.13 4.09 69.03 4.16L69.03 4.16Q68.65 4.43 67.92 4.89L67.92 4.89Q67.96 4.21 67.96 4.19Q67.96 4.16 67.92 3.41L67.92 3.41ZM70.68 13.24L70.68 13.24Q70.47 13.41 70.28 13.58Q70.08 13.75 69.87 13.89L69.87 13.89Q69.38 14.21 68.93 14.21L68.93 14.21Q68.50 14.21 68.33 14.08L68.33 14.08Q67.98 13.82 67.98 13.13L67.98 13.13L67.98 9.88Q67.98 9.15 67.72 8.93L67.72 8.93Q67.59 8.83 67.45 8.83Q67.31 8.83 67.21 8.84Q67.11 8.86 67.01 8.88Q66.90 8.90 66.79 8.92L66.79 8.92Q67.14 8.65 67.43 8.44Q67.73 8.23 67.94 8.09Q68.15 7.94 68.53 7.68Q68.91 7.42 69.31 7.21L69.31 7.21L69.31 12.03Q69.31 12.73 69.40 12.91L69.40 12.91Q69.59 13.29 70.25 13.29L70.25 13.29Q70.42 13.29 70.68 13.24Z"></path></g><!----><!----></svg>