<svg data-v-423bf9ae="" xmlns="http://www.w3.org/2000/svg" viewBox="0 0 83.95185790960909 60" class="font"><!----><!----><!----><g data-v-423bf9ae="" id="dbe6830f-282b-4c9c-a728-3bc5903226cf" fill="white" transform="matrix(6.0180540013045345,0,0,6.0180540013045345,-1.3841535853725944,-25.516548064945134)"><path d="M5.15 9.28L5.15 12.06L5.13 12.54Q5.13 13.07 5.43 13.21L5.43 13.21Q5.55 13.27 5.70 13.27L5.70 13.27Q5.94 13.27 6.19 13.16L6.19 13.16Q5.93 13.27 5.74 13.45Q5.55 13.62 5.35 13.79L5.35 13.79Q4.86 14.21 4.36 14.21L4.36 14.21Q3.86 14.21 3.83 13.63L3.83 13.63Q3.81 13.48 3.81 13.33L3.81 13.33Q2.58 14.18 1.56 14.18L1.56 14.18Q0.69 14.18 0.36 13.66L0.36 13.66Q0.23 13.47 0.23 13.13Q0.23 12.80 0.44 12.46Q0.64 12.12 0.96 11.84L0.96 11.84Q1.52 11.32 2.31 10.99L2.31 10.99Q2.90 10.73 3.82 10.70L3.82 10.70L3.82 10.40Q3.82 9.31 3.62 8.93Q3.42 8.54 3.11 8.36Q2.80 8.18 2.37 8.18L2.37 8.18Q1.65 8.18 1.11 8.46L1.11 8.46Q1.86 7.84 2.21 7.64L2.21 7.64Q2.93 7.24 3.51 7.24Q4.09 7.24 4.39 7.41Q4.68 7.58 4.85 7.86L4.85 7.86Q5.15 8.35 5.15 9.28L5.15 9.28ZM1.93 13.04Q2.10 13.16 2.32 13.21Q2.54 13.27 2.97 13.27Q3.40 13.27 3.82 13.06L3.82 13.06L3.82 11.63L2.71 11.63Q2.12 11.63 1.67 11.71L1.67 11.71Q1.59 12.00 1.59 12.27Q1.59 12.54 1.68 12.73Q1.77 12.92 1.93 13.04ZM9.77 4.25L9.77 4.25L11.12 4.24Q12.27 4.24 12.82 4.57L12.82 4.57Q13.55 5.00 13.55 6.06L13.55 6.06Q13.55 7.04 12.41 7.87L12.41 7.87Q12.10 8.09 11.81 8.30L11.81 8.30Q13.45 8.48 13.99 9.65L13.99 9.65Q14.18 10.06 14.18 10.53Q14.18 11.00 14.00 11.38Q13.83 11.75 13.54 12.10Q13.25 12.44 12.88 12.75Q12.50 13.06 12.11 13.30L12.11 13.30Q11.01 13.97 10.19 14.03L10.19 14.03Q9.60 14.08 9.15 14.08L9.15 14.08L7.61 14.08Q7.91 13.66 7.97 13.47L7.97 13.47Q8.07 13.18 8.07 12.67L8.07 12.67L8.07 5.17L6.56 5.17Q7.65 4.25 7.89 4.25L7.89 4.25Q8.83 4.25 9.77 4.25ZM9.39 5.14L9.39 8.31Q9.82 8.29 10.47 8.29Q11.11 8.29 11.40 8.31L11.40 8.31Q12.08 8.09 12.20 7.49L12.20 7.49Q12.23 7.28 12.23 7.01L12.23 7.01Q12.23 5.13 9.87 5.13L9.87 5.13Q9.63 5.13 9.39 5.14L9.39 5.14ZM9.39 9.21L9.39 11.71Q9.39 12.50 8.96 13.15L8.96 13.15L10.86 13.15Q11.66 13.15 12.04 12.93Q12.43 12.71 12.63 12.39Q12.82 12.07 12.82 11.55Q12.82 11.02 12.68 10.64Q12.54 10.27 12.29 10.01Q12.04 9.75 11.71 9.59Q11.38 9.43 10.99 9.35L10.99 9.35Q10.37 9.21 9.39 9.21L9.39 9.21Z"></path></g><!----><!----></svg>